<?xml version="1.0" standalone="no"?>
<!DOCTYPE svg PUBLIC "-//W3C//DTD SVG 20010904//EN"
 "http://www.w3.org/TR/2001/REC-SVG-20010904/DTD/svg10.dtd">
<svg version="1.0" xmlns="http://www.w3.org/2000/svg"
 width="96.000000pt" height="96.000000pt" viewBox="0 0 96.000000 96.000000"
 preserveAspectRatio="xMidYMid meet">

<g transform="translate(0.000000,96.000000) scale(0.100000,-0.100000)"
fill="#000000" stroke="none">
<path d="M361 944 c-253 -68 -410 -331 -346 -579 67 -256 329 -415 580 -350
256 67 415 329 350 578 -67 259 -333 419 -584 351z m214 -99 c165 -43 275
-165 305 -338 9 -51 9 -83 0 -134 -12 -71 -44 -155 -65 -173 -17 -14 -119 66
-111 89 2 9 12 36 21 61 22 59 16 160 -13 216 -27 53 -100 117 -150 132 -105
32 -219 -4 -276 -86 -41 -58 -48 -151 -17 -215 53 -110 204 -140 282 -56 l26
28 58 -46 59 -46 -52 -48 c-68 -62 -129 -83 -231 -77 -129 8 -222 72 -278 193
-23 51 -28 73 -27 145 0 110 32 186 110 260 101 96 227 129 359 95z m-37 -301
c43 -30 67 -115 43 -153 -10 -15 -18 -12 -76 35 -31 25 -44 29 -56 21 -50 -32
-71 54 -23 92 32 25 81 27 112 5z"/>
</g>
</svg>
